<svg width="292" height="244" viewBox="0 0 292 244" fill="none" xmlns="http://www.w3.org/2000/svg">
<circle cx="2.92857" cy="16.9286" r="16.9286" fill="white" fill-opacity="0.06"/>
<circle cx="2.92857" cy="84.7858" r="16.9286" fill="white" fill-opacity="0.06"/>
<circle cx="2.92857" cy="152.643" r="16.9286" fill="white" fill-opacity="0.06"/>
<circle cx="2.92857" cy="220.5" r="16.9286" fill="white" fill-opacity="0.06"/>
<circle cx="70.7858" cy="16.9286" r="16.9286" fill="white" fill-opacity="0.06"/>
<circle cx="70.7858" cy="84.7858" r="16.9286" fill="white" fill-opacity="0.06"/>
<circle cx="70.7858" cy="152.643" r="16.9286" fill="white" fill-opacity="0.06"/>
<circle cx="70.7858" cy="220.5" r="16.9286" fill="white" fill-opacity="0.06"/>
<circle cx="138.643" cy="16.9286" r="16.9286" fill="white" fill-opacity="0.06"/>
<circle cx="138.643" cy="84.7858" r="16.9286" fill="white" fill-opacity="0.06"/>
<circle cx="138.643" cy="152.643" r="16.9286" fill="white" fill-opacity="0.06"/>
<circle cx="138.643" cy="220.5" r="16.9286" fill="white" fill-opacity="0.06"/>
<circle cx="206.5" cy="16.9286" r="16.9286" fill="white" fill-opacity="0.06"/>
<circle cx="206.5" cy="84.7858" r="16.9286" fill="white" fill-opacity="0.06"/>
<circle cx="206.5" cy="152.643" r="16.9286" fill="white" fill-opacity="0.06"/>
<circle cx="206.5" cy="220.5" r="16.9286" fill="white" fill-opacity="0.06"/>
<circle cx="274.357" cy="16.9286" r="16.9286" fill="white" fill-opacity="0.06"/>
<circle cx="274.357" cy="84.7858" r="16.9286" fill="white" fill-opacity="0.06"/>
<circle cx="274.357" cy="152.643" r="16.9286" fill="white" fill-opacity="0.06"/>
<circle cx="274.357" cy="220.5" r="16.9286" fill="white" fill-opacity="0.06"/>
</svg>
