<svg width="384" height="239" viewBox="0 0 384 239" fill="none" xmlns="http://www.w3.org/2000/svg">
<g filter="url(#filter0_d_49_4873)">
<rect x="67" y="104" width="189" height="48" rx="24" fill="white"/>
<rect x="75" y="112" width="32" height="32" rx="16" fill="#089958"/>
<g clip-path="url(#clip0_49_4873)">
<path fill-rule="evenodd" clip-rule="evenodd" d="M91 119.938C93.8416 119.938 95.2625 119.938 96.332 120.482C97.2728 120.962 98.0382 121.727 98.5176 122.668C99.0624 123.737 99.0625 125.158 99.0625 128C99.0625 130.842 99.0624 132.263 98.5176 133.332C98.0382 134.273 97.2728 135.038 96.332 135.518C95.2625 136.062 93.8416 136.062 91 136.062C88.1584 136.062 86.7375 136.062 85.668 135.518C84.7272 135.038 83.9618 134.273 83.4824 133.332C82.9376 132.263 82.9375 130.842 82.9375 128C82.9375 125.158 82.9376 123.737 83.4824 122.668C83.9618 121.727 84.7272 120.962 85.668 120.482C86.7375 119.938 88.1584 119.938 91 119.938ZM95.457 125.043C95.0665 124.652 94.4335 124.652 94.043 125.043L91.75 127.336L90.957 126.543C90.5909 126.177 90.0119 126.154 89.6191 126.475L89.543 126.543L86.543 129.543C86.1524 129.933 86.1524 130.567 86.543 130.957C86.9335 131.348 87.5665 131.348 87.957 130.957L90.25 128.664L91.043 129.457C91.2305 129.645 91.4848 129.75 91.75 129.75C92.0152 129.75 92.2695 129.645 92.457 129.457L95.457 126.457C95.8476 126.067 95.8476 125.433 95.457 125.043Z" fill="url(#paint0_linear_49_4873)"/>
</g>
<path d="M121.652 123.636V124.524H118.016V127.344H120.968V128.232H118.016V132H116.924V123.636H121.652ZM122.323 128.688C122.323 128.016 122.459 127.428 122.731 126.924C123.003 126.412 123.375 126.016 123.847 125.736C124.327 125.456 124.859 125.316 125.443 125.316C126.019 125.316 126.519 125.44 126.943 125.688C127.367 125.936 127.683 126.248 127.891 126.624V125.424H128.995V132H127.891V130.776C127.675 131.16 127.351 131.48 126.919 131.736C126.495 131.984 125.999 132.108 125.431 132.108C124.847 132.108 124.319 131.964 123.847 131.676C123.375 131.388 123.003 130.984 122.731 130.464C122.459 129.944 122.323 129.352 122.323 128.688ZM127.891 128.7C127.891 128.204 127.791 127.772 127.591 127.404C127.391 127.036 127.119 126.756 126.775 126.564C126.439 126.364 126.067 126.264 125.659 126.264C125.251 126.264 124.879 126.36 124.543 126.552C124.207 126.744 123.939 127.024 123.739 127.392C123.539 127.76 123.439 128.192 123.439 128.688C123.439 129.192 123.539 129.632 123.739 130.008C123.939 130.376 124.207 130.66 124.543 130.86C124.879 131.052 125.251 131.148 125.659 131.148C126.067 131.148 126.439 131.052 126.775 130.86C127.119 130.66 127.391 130.376 127.591 130.008C127.791 129.632 127.891 129.196 127.891 128.7ZM132.928 132.108C132.424 132.108 131.972 132.024 131.572 131.856C131.172 131.68 130.856 131.44 130.624 131.136C130.392 130.824 130.264 130.468 130.24 130.068H131.368C131.4 130.396 131.552 130.664 131.824 130.872C132.104 131.08 132.468 131.184 132.916 131.184C133.332 131.184 133.66 131.092 133.9 130.908C134.14 130.724 134.26 130.492 134.26 130.212C134.26 129.924 134.132 129.712 133.876 129.576C133.62 129.432 133.224 129.292 132.688 129.156C132.2 129.028 131.8 128.9 131.488 128.772C131.184 128.636 130.92 128.44 130.696 128.184C130.48 127.92 130.372 127.576 130.372 127.152C130.372 126.816 130.472 126.508 130.672 126.228C130.872 125.948 131.156 125.728 131.524 125.568C131.892 125.4 132.312 125.316 132.784 125.316C133.512 125.316 134.1 125.5 134.548 125.868C134.996 126.236 135.236 126.74 135.268 127.38H134.176C134.152 127.036 134.012 126.76 133.756 126.552C133.508 126.344 133.172 126.24 132.748 126.24C132.356 126.24 132.044 126.324 131.812 126.492C131.58 126.66 131.464 126.88 131.464 127.152C131.464 127.368 131.532 127.548 131.668 127.692C131.812 127.828 131.988 127.94 132.196 128.028C132.412 128.108 132.708 128.2 133.084 128.304C133.556 128.432 133.94 128.56 134.236 128.688C134.532 128.808 134.784 128.992 134.992 129.24C135.208 129.488 135.32 129.812 135.328 130.212C135.328 130.572 135.228 130.896 135.028 131.184C134.828 131.472 134.544 131.7 134.176 131.868C133.816 132.028 133.4 132.108 132.928 132.108ZM137.962 126.324V130.2C137.962 130.52 138.03 130.748 138.166 130.884C138.302 131.012 138.538 131.076 138.874 131.076H139.678V132H138.694C138.086 132 137.63 131.86 137.326 131.58C137.022 131.3 136.87 130.84 136.87 130.2V126.324H136.018V125.424H136.87V123.768H137.962V125.424H139.678V126.324H137.962ZM148.124 132L146.132 128.58H144.812V132H143.72V123.636H146.42C147.052 123.636 147.584 123.744 148.016 123.96C148.456 124.176 148.784 124.468 149 124.836C149.216 125.204 149.324 125.624 149.324 126.096C149.324 126.672 149.156 127.18 148.82 127.62C148.492 128.06 147.996 128.352 147.332 128.496L149.432 132H148.124ZM144.812 127.704H146.42C147.012 127.704 147.456 127.56 147.752 127.272C148.048 126.976 148.196 126.584 148.196 126.096C148.196 125.6 148.048 125.216 147.752 124.944C147.464 124.672 147.02 124.536 146.42 124.536H144.812V127.704ZM156.781 128.46C156.781 128.668 156.769 128.888 156.745 129.12H151.489C151.529 129.768 151.749 130.276 152.149 130.644C152.557 131.004 153.049 131.184 153.625 131.184C154.097 131.184 154.489 131.076 154.801 130.86C155.121 130.636 155.345 130.34 155.473 129.972H156.649C156.473 130.604 156.121 131.12 155.593 131.52C155.065 131.912 154.409 132.108 153.625 132.108C153.001 132.108 152.441 131.968 151.945 131.688C151.457 131.408 151.073 131.012 150.793 130.5C150.513 129.98 150.373 129.38 150.373 128.7C150.373 128.02 150.509 127.424 150.781 126.912C151.053 126.4 151.433 126.008 151.921 125.736C152.417 125.456 152.985 125.316 153.625 125.316C154.249 125.316 154.801 125.452 155.281 125.724C155.761 125.996 156.129 126.372 156.385 126.852C156.649 127.324 156.781 127.86 156.781 128.46ZM155.653 128.232C155.653 127.816 155.561 127.46 155.377 127.164C155.193 126.86 154.941 126.632 154.621 126.48C154.309 126.32 153.961 126.24 153.577 126.24C153.025 126.24 152.553 126.416 152.161 126.768C151.777 127.12 151.557 127.608 151.501 128.232H155.653ZM160.31 132.108C159.806 132.108 159.354 132.024 158.954 131.856C158.554 131.68 158.238 131.44 158.006 131.136C157.774 130.824 157.646 130.468 157.622 130.068H158.75C158.782 130.396 158.934 130.664 159.206 130.872C159.486 131.08 159.85 131.184 160.298 131.184C160.714 131.184 161.042 131.092 161.282 130.908C161.522 130.724 161.642 130.492 161.642 130.212C161.642 129.924 161.514 129.712 161.258 129.576C161.002 129.432 160.606 129.292 160.07 129.156C159.582 129.028 159.182 128.9 158.87 128.772C158.566 128.636 158.302 128.44 158.078 128.184C157.862 127.92 157.754 127.576 157.754 127.152C157.754 126.816 157.854 126.508 158.054 126.228C158.254 125.948 158.538 125.728 158.906 125.568C159.274 125.4 159.694 125.316 160.166 125.316C160.894 125.316 161.482 125.5 161.93 125.868C162.378 126.236 162.618 126.74 162.65 127.38H161.558C161.534 127.036 161.394 126.76 161.138 126.552C160.89 126.344 160.554 126.24 160.13 126.24C159.738 126.24 159.426 126.324 159.194 126.492C158.962 126.66 158.846 126.88 158.846 127.152C158.846 127.368 158.914 127.548 159.05 127.692C159.194 127.828 159.37 127.94 159.578 128.028C159.794 128.108 160.09 128.2 160.466 128.304C160.938 128.432 161.322 128.56 161.618 128.688C161.914 128.808 162.166 128.992 162.374 129.24C162.59 129.488 162.702 129.812 162.71 130.212C162.71 130.572 162.61 130.896 162.41 131.184C162.21 131.472 161.926 131.7 161.558 131.868C161.198 132.028 160.782 132.108 160.31 132.108ZM165.104 126.636C165.32 126.26 165.64 125.948 166.064 125.7C166.496 125.444 166.996 125.316 167.564 125.316C168.148 125.316 168.676 125.456 169.148 125.736C169.628 126.016 170.004 126.412 170.276 126.924C170.548 127.428 170.684 128.016 170.684 128.688C170.684 129.352 170.548 129.944 170.276 130.464C170.004 130.984 169.628 131.388 169.148 131.676C168.676 131.964 168.148 132.108 167.564 132.108C167.004 132.108 166.508 131.984 166.076 131.736C165.652 131.48 165.328 131.164 165.104 130.788V135.12H164.012V125.424H165.104V126.636ZM169.568 128.688C169.568 128.192 169.468 127.76 169.268 127.392C169.068 127.024 168.796 126.744 168.452 126.552C168.116 126.36 167.744 126.264 167.336 126.264C166.936 126.264 166.564 126.364 166.22 126.564C165.884 126.756 165.612 127.04 165.404 127.416C165.204 127.784 165.104 128.212 165.104 128.7C165.104 129.196 165.204 129.632 165.404 130.008C165.612 130.376 165.884 130.66 166.22 130.86C166.564 131.052 166.936 131.148 167.336 131.148C167.744 131.148 168.116 131.052 168.452 130.86C168.796 130.66 169.068 130.376 169.268 130.008C169.468 129.632 169.568 129.192 169.568 128.688ZM174.749 132.108C174.133 132.108 173.573 131.968 173.069 131.688C172.573 131.408 172.181 131.012 171.893 130.5C171.613 129.98 171.473 129.38 171.473 128.7C171.473 128.028 171.617 127.436 171.905 126.924C172.201 126.404 172.601 126.008 173.105 125.736C173.609 125.456 174.173 125.316 174.797 125.316C175.421 125.316 175.985 125.456 176.489 125.736C176.993 126.008 177.389 126.4 177.677 126.912C177.973 127.424 178.121 128.02 178.121 128.7C178.121 129.38 177.969 129.98 177.665 130.5C177.369 131.012 176.965 131.408 176.453 131.688C175.941 131.968 175.373 132.108 174.749 132.108ZM174.749 131.148C175.141 131.148 175.509 131.056 175.853 130.872C176.197 130.688 176.473 130.412 176.681 130.044C176.897 129.676 177.005 129.228 177.005 128.7C177.005 128.172 176.901 127.724 176.693 127.356C176.485 126.988 176.213 126.716 175.877 126.54C175.541 126.356 175.177 126.264 174.785 126.264C174.385 126.264 174.017 126.356 173.681 126.54C173.353 126.716 173.089 126.988 172.889 127.356C172.689 127.724 172.589 128.172 172.589 128.7C172.589 129.236 172.685 129.688 172.877 130.056C173.077 130.424 173.341 130.7 173.669 130.884C173.997 131.06 174.357 131.148 174.749 131.148ZM182.521 125.304C183.321 125.304 183.969 125.548 184.465 126.036C184.961 126.516 185.209 127.212 185.209 128.124V132H184.129V128.28C184.129 127.624 183.965 127.124 183.637 126.78C183.309 126.428 182.861 126.252 182.293 126.252C181.717 126.252 181.257 126.432 180.913 126.792C180.577 127.152 180.409 127.676 180.409 128.364V132H179.317V125.424H180.409V126.36C180.625 126.024 180.917 125.764 181.285 125.58C181.661 125.396 182.073 125.304 182.521 125.304ZM189.081 132.108C188.577 132.108 188.125 132.024 187.725 131.856C187.325 131.68 187.009 131.44 186.777 131.136C186.545 130.824 186.417 130.468 186.393 130.068H187.521C187.553 130.396 187.705 130.664 187.977 130.872C188.257 131.08 188.621 131.184 189.069 131.184C189.485 131.184 189.813 131.092 190.053 130.908C190.293 130.724 190.413 130.492 190.413 130.212C190.413 129.924 190.285 129.712 190.029 129.576C189.773 129.432 189.377 129.292 188.841 129.156C188.353 129.028 187.953 128.9 187.641 128.772C187.337 128.636 187.073 128.44 186.849 128.184C186.633 127.92 186.525 127.576 186.525 127.152C186.525 126.816 186.625 126.508 186.825 126.228C187.025 125.948 187.309 125.728 187.677 125.568C188.045 125.4 188.465 125.316 188.937 125.316C189.665 125.316 190.253 125.5 190.701 125.868C191.149 126.236 191.389 126.74 191.421 127.38H190.329C190.305 127.036 190.165 126.76 189.909 126.552C189.661 126.344 189.325 126.24 188.901 126.24C188.509 126.24 188.197 126.324 187.965 126.492C187.733 126.66 187.617 126.88 187.617 127.152C187.617 127.368 187.685 127.548 187.821 127.692C187.965 127.828 188.141 127.94 188.349 128.028C188.565 128.108 188.861 128.2 189.237 128.304C189.709 128.432 190.093 128.56 190.389 128.688C190.685 128.808 190.937 128.992 191.145 129.24C191.361 129.488 191.473 129.812 191.481 130.212C191.481 130.572 191.381 130.896 191.181 131.184C190.981 131.472 190.697 131.7 190.329 131.868C189.969 132.028 189.553 132.108 189.081 132.108ZM198.782 128.46C198.782 128.668 198.77 128.888 198.746 129.12H193.49C193.53 129.768 193.75 130.276 194.15 130.644C194.558 131.004 195.05 131.184 195.626 131.184C196.098 131.184 196.49 131.076 196.802 130.86C197.122 130.636 197.346 130.34 197.474 129.972H198.65C198.474 130.604 198.122 131.12 197.594 131.52C197.066 131.912 196.41 132.108 195.626 132.108C195.002 132.108 194.442 131.968 193.946 131.688C193.458 131.408 193.074 131.012 192.794 130.5C192.514 129.98 192.374 129.38 192.374 128.7C192.374 128.02 192.51 127.424 192.782 126.912C193.054 126.4 193.434 126.008 193.922 125.736C194.418 125.456 194.986 125.316 195.626 125.316C196.25 125.316 196.802 125.452 197.282 125.724C197.762 125.996 198.13 126.372 198.386 126.852C198.65 127.324 198.782 127.86 198.782 128.46ZM197.654 128.232C197.654 127.816 197.562 127.46 197.378 127.164C197.194 126.86 196.942 126.632 196.622 126.48C196.31 126.32 195.962 126.24 195.578 126.24C195.026 126.24 194.554 126.416 194.162 126.768C193.778 127.12 193.558 127.608 193.502 128.232H197.654Z" fill="#092857"/>
<path d="M208 139C208 139 208.95 123.787 218 125.5C222.766 126.402 222.694 132.85 227.5 133.5C235.396 134.567 239.5 117 239.5 117" stroke="url(#paint1_linear_49_4873)" stroke-width="2" stroke-linecap="round"/>
</g>
<defs>
<filter id="filter0_d_49_4873" x="-61" y="0" width="445" height="304" filterUnits="userSpaceOnUse" color-interpolation-filters="sRGB">
<feFlood flood-opacity="0" result="BackgroundImageFix"/>
<feColorMatrix in="SourceAlpha" type="matrix" values="0 0 0 0 0 0 0 0 0 0 0 0 0 0 0 0 0 0 127 0" result="hardAlpha"/>
<feMorphology radius="12" operator="erode" in="SourceAlpha" result="effect1_dropShadow_49_4873"/>
<feOffset dy="24"/>
<feGaussianBlur stdDeviation="70"/>
<feComposite in2="hardAlpha" operator="out"/>
<feColorMatrix type="matrix" values="0 0 0 0 0.7954 0 0 0 0 0.808787 0 0 0 0 0.82 0 0 0 1 0"/>
<feBlend mode="normal" in2="BackgroundImageFix" result="effect1_dropShadow_49_4873"/>
<feBlend mode="normal" in="SourceGraphic" in2="effect1_dropShadow_49_4873" result="shape"/>
</filter>
<linearGradient id="paint0_linear_49_4873" x1="91" y1="119.938" x2="96.3995" y2="136.91" gradientUnits="userSpaceOnUse">
<stop offset="0.164583" stop-color="white"/>
<stop offset="1" stop-color="white" stop-opacity="0.41"/>
</linearGradient>
<linearGradient id="paint1_linear_49_4873" x1="240" y1="116.5" x2="208" y2="138.5" gradientUnits="userSpaceOnUse">
<stop offset="0.337623" stop-color="#6CE9A6"/>
<stop offset="1" stop-color="#ECFDF3" stop-opacity="0"/>
</linearGradient>
<clipPath id="clip0_49_4873">
<rect width="18" height="18" fill="white" transform="translate(82 119)"/>
</clipPath>
</defs>
</svg>
