<svg width="212" height="103" viewBox="0 0 212 103" fill="none" xmlns="http://www.w3.org/2000/svg">
<g filter="url(#filter0_d_51_4894)">
<rect x="16" y="8" width="180" height="71" rx="16" fill="white" shape-rendering="crispEdges"/>
<path d="M75.8547 30.1747L75.996 30.1667L76.1693 30.1774L76.2893 30.1987L76.4533 30.2454L76.596 30.3067L76.7293 30.3827L76.8493 30.472L76.9587 30.572L77.028 30.6507L77.1373 30.8054L77.2067 30.9334C77.2689 31.0667 77.3089 31.2071 77.3267 31.3547L77.3333 31.496C77.3333 31.5965 77.3227 31.6942 77.3013 31.7894L77.2547 31.9534L68.5453 56.056C68.3802 56.4154 68.1155 56.7199 67.7824 56.9334C67.4494 57.1468 67.0622 57.2601 66.6667 57.26C66.3105 57.2608 65.9602 57.1694 65.6497 56.9949C65.3393 56.8204 65.0792 56.5687 64.8947 56.264L64.808 56.0947L60.3387 47.1587L51.4453 42.7107C51.1163 42.5602 50.8325 42.3259 50.6224 42.0313C50.4122 41.7368 50.2831 41.3922 50.248 41.032L50.24 40.8334C50.24 40.0867 50.6413 39.404 51.3613 39.0067L51.548 38.9134L75.5707 30.2387L75.712 30.1987L75.8547 30.1747Z" fill="#039855"/>
<path d="M100.96 35.612C100.181 35.612 99.4773 35.4787 98.848 35.212C98.2293 34.9453 97.7387 34.5613 97.376 34.06C97.0133 33.5587 96.8267 32.9667 96.816 32.284H99.216C99.248 32.7427 99.408 33.1053 99.696 33.372C99.9947 33.6387 100.4 33.772 100.912 33.772C101.435 33.772 101.845 33.6493 102.144 33.404C102.443 33.148 102.592 32.8173 102.592 32.412C102.592 32.0813 102.491 31.8093 102.288 31.596C102.085 31.3827 101.829 31.2173 101.52 31.1C101.221 30.972 100.805 30.8333 100.272 30.684C99.5467 30.4707 98.9547 30.2627 98.496 30.06C98.048 29.8467 97.6587 29.532 97.328 29.116C97.008 28.6893 96.848 28.124 96.848 27.42C96.848 26.7587 97.0133 26.1827 97.344 25.692C97.6747 25.2013 98.1387 24.828 98.736 24.572C99.3333 24.3053 100.016 24.172 100.784 24.172C101.936 24.172 102.869 24.4547 103.584 25.02C104.309 25.5747 104.709 26.3533 104.784 27.356H102.32C102.299 26.972 102.133 26.6573 101.824 26.412C101.525 26.156 101.125 26.028 100.624 26.028C100.187 26.028 99.8347 26.14 99.568 26.364C99.312 26.588 99.184 26.9133 99.184 27.34C99.184 27.6387 99.28 27.8893 99.472 28.092C99.6747 28.284 99.92 28.444 100.208 28.572C100.507 28.6893 100.923 28.828 101.456 28.988C102.181 29.2013 102.773 29.4147 103.232 29.628C103.691 29.8413 104.085 30.1613 104.416 30.588C104.747 31.0147 104.912 31.5747 104.912 32.268C104.912 32.8653 104.757 33.42 104.448 33.932C104.139 34.444 103.685 34.8547 103.088 35.164C102.491 35.4627 101.781 35.612 100.96 35.612ZM115.094 30.876C115.094 31.196 115.073 31.484 115.03 31.74H108.55C108.603 32.38 108.827 32.8813 109.222 33.244C109.617 33.6067 110.102 33.788 110.678 33.788C111.51 33.788 112.102 33.4307 112.454 32.716H114.87C114.614 33.5693 114.123 34.2733 113.398 34.828C112.673 35.372 111.782 35.644 110.726 35.644C109.873 35.644 109.105 35.4573 108.422 35.084C107.75 34.7 107.222 34.1613 106.838 33.468C106.465 32.7747 106.278 31.9747 106.278 31.068C106.278 30.1507 106.465 29.3453 106.838 28.652C107.211 27.9587 107.734 27.4253 108.406 27.052C109.078 26.6787 109.851 26.492 110.726 26.492C111.569 26.492 112.321 26.6733 112.982 27.036C113.654 27.3987 114.171 27.916 114.534 28.588C114.907 29.2493 115.094 30.012 115.094 30.876ZM112.774 30.236C112.763 29.66 112.555 29.2013 112.15 28.86C111.745 28.508 111.249 28.332 110.662 28.332C110.107 28.332 109.638 28.5027 109.254 28.844C108.881 29.1747 108.651 29.6387 108.566 30.236H112.774ZM116.153 31.068C116.153 30.1507 116.34 29.3507 116.713 28.668C117.086 27.9747 117.604 27.4413 118.265 27.068C118.926 26.684 119.684 26.492 120.537 26.492C121.636 26.492 122.542 26.7693 123.257 27.324C123.982 27.868 124.468 28.636 124.713 29.628H122.297C122.169 29.244 121.95 28.9453 121.641 28.732C121.342 28.508 120.969 28.396 120.521 28.396C119.881 28.396 119.374 28.6307 119.001 29.1C118.628 29.5587 118.441 30.2147 118.441 31.068C118.441 31.9107 118.628 32.5667 119.001 33.036C119.374 33.4947 119.881 33.724 120.521 33.724C121.428 33.724 122.02 33.3187 122.297 32.508H124.713C124.468 33.468 123.982 34.2307 123.257 34.796C122.532 35.3613 121.625 35.644 120.537 35.644C119.684 35.644 118.926 35.4573 118.265 35.084C117.604 34.7 117.086 34.1667 116.713 33.484C116.34 32.7907 116.153 31.9853 116.153 31.068ZM134.722 26.636V35.5H132.466V34.38C132.178 34.764 131.799 35.068 131.33 35.292C130.871 35.5053 130.37 35.612 129.826 35.612C129.133 35.612 128.519 35.468 127.986 35.18C127.453 34.8813 127.031 34.4493 126.722 33.884C126.423 33.308 126.274 32.6253 126.274 31.836V26.636H128.514V31.516C128.514 32.22 128.69 32.764 129.042 33.148C129.394 33.5213 129.874 33.708 130.482 33.708C131.101 33.708 131.586 33.5213 131.938 33.148C132.29 32.764 132.466 32.22 132.466 31.516V26.636H134.722ZM139.172 28.012C139.46 27.5427 139.833 27.1747 140.292 26.908C140.761 26.6413 141.295 26.508 141.892 26.508V28.86H141.3C140.596 28.86 140.063 29.0253 139.7 29.356C139.348 29.6867 139.172 30.2627 139.172 31.084V35.5H136.932V26.636H139.172V28.012ZM151.641 30.876C151.641 31.196 151.62 31.484 151.577 31.74H145.097C145.15 32.38 145.374 32.8813 145.769 33.244C146.164 33.6067 146.649 33.788 147.225 33.788C148.057 33.788 148.649 33.4307 149.001 32.716H151.417C151.161 33.5693 150.67 34.2733 149.945 34.828C149.22 35.372 148.329 35.644 147.273 35.644C146.42 35.644 145.652 35.4573 144.969 35.084C144.297 34.7 143.769 34.1613 143.385 33.468C143.012 32.7747 142.825 31.9747 142.825 31.068C142.825 30.1507 143.012 29.3453 143.385 28.652C143.758 27.9587 144.281 27.4253 144.953 27.052C145.625 26.6787 146.398 26.492 147.273 26.492C148.116 26.492 148.868 26.6733 149.529 27.036C150.201 27.3987 150.718 27.916 151.081 28.588C151.454 29.2493 151.641 30.012 151.641 30.876ZM149.321 30.236C149.31 29.66 149.102 29.2013 148.697 28.86C148.292 28.508 147.796 28.332 147.209 28.332C146.654 28.332 146.185 28.5027 145.801 28.844C145.428 29.1747 145.198 29.6387 145.113 30.236H149.321ZM152.7 31.036C152.7 30.14 152.876 29.3453 153.228 28.652C153.591 27.9587 154.081 27.4253 154.7 27.052C155.319 26.6787 156.007 26.492 156.764 26.492C157.34 26.492 157.889 26.62 158.412 26.876C158.935 27.1213 159.351 27.452 159.66 27.868V23.66H161.932V35.5H159.66V34.188C159.383 34.6253 158.993 34.9773 158.492 35.244C157.991 35.5107 157.409 35.644 156.748 35.644C156.001 35.644 155.319 35.452 154.7 35.068C154.081 34.684 153.591 34.1453 153.228 33.452C152.876 32.748 152.7 31.9427 152.7 31.036ZM159.676 31.068C159.676 30.524 159.569 30.06 159.356 29.676C159.143 29.2813 158.855 28.9827 158.492 28.78C158.129 28.5667 157.74 28.46 157.324 28.46C156.908 28.46 156.524 28.5613 156.172 28.764C155.82 28.9667 155.532 29.2653 155.308 29.66C155.095 30.044 154.988 30.5027 154.988 31.036C154.988 31.5693 155.095 32.0387 155.308 32.444C155.532 32.8387 155.82 33.1427 156.172 33.356C156.535 33.5693 156.919 33.676 157.324 33.676C157.74 33.676 158.129 33.5747 158.492 33.372C158.855 33.1587 159.143 32.86 159.356 32.476C159.569 32.0813 159.676 31.612 159.676 31.068Z" fill="black"/>
<path d="M96.576 53.9V51.836H100.432V63.5H98.128V53.9H96.576ZM102.645 57.516C102.645 55.6707 102.976 54.2253 103.637 53.18C104.309 52.1347 105.418 51.612 106.965 51.612C108.512 51.612 109.616 52.1347 110.277 53.18C110.949 54.2253 111.285 55.6707 111.285 57.516C111.285 59.372 110.949 60.828 110.277 61.884C109.616 62.94 108.512 63.468 106.965 63.468C105.418 63.468 104.309 62.94 103.637 61.884C102.976 60.828 102.645 59.372 102.645 57.516ZM109.077 57.516C109.077 56.7267 109.024 56.0653 108.917 55.532C108.821 54.988 108.618 54.5453 108.309 54.204C108.01 53.8627 107.562 53.692 106.965 53.692C106.368 53.692 105.914 53.8627 105.605 54.204C105.306 54.5453 105.104 54.988 104.997 55.532C104.901 56.0653 104.853 56.7267 104.853 57.516C104.853 58.3267 104.901 59.0093 104.997 59.564C105.093 60.108 105.296 60.5507 105.605 60.892C105.914 61.2227 106.368 61.388 106.965 61.388C107.562 61.388 108.016 61.2227 108.325 60.892C108.634 60.5507 108.837 60.108 108.933 59.564C109.029 59.0093 109.077 58.3267 109.077 57.516ZM112.989 57.516C112.989 55.6707 113.319 54.2253 113.981 53.18C114.653 52.1347 115.762 51.612 117.309 51.612C118.855 51.612 119.959 52.1347 120.621 53.18C121.293 54.2253 121.629 55.6707 121.629 57.516C121.629 59.372 121.293 60.828 120.621 61.884C119.959 62.94 118.855 63.468 117.309 63.468C115.762 63.468 114.653 62.94 113.981 61.884C113.319 60.828 112.989 59.372 112.989 57.516ZM119.421 57.516C119.421 56.7267 119.367 56.0653 119.261 55.532C119.165 54.988 118.962 54.5453 118.653 54.204C118.354 53.8627 117.906 53.692 117.309 53.692C116.711 53.692 116.258 53.8627 115.949 54.204C115.65 54.5453 115.447 54.988 115.341 55.532C115.245 56.0653 115.197 56.7267 115.197 57.516C115.197 58.3267 115.245 59.0093 115.341 59.564C115.437 60.108 115.639 60.5507 115.949 60.892C116.258 61.2227 116.711 61.388 117.309 61.388C117.906 61.388 118.359 61.2227 118.669 60.892C118.978 60.5507 119.181 60.108 119.277 59.564C119.373 59.0093 119.421 58.3267 119.421 57.516ZM123.076 54.7C123.076 53.8893 123.311 53.2547 123.78 52.796C124.26 52.3373 124.874 52.108 125.62 52.108C126.367 52.108 126.975 52.3373 127.444 52.796C127.924 53.2547 128.164 53.8893 128.164 54.7C128.164 55.5213 127.924 56.1613 127.444 56.62C126.975 57.0787 126.367 57.308 125.62 57.308C124.874 57.308 124.26 57.0787 123.78 56.62C123.311 56.1613 123.076 55.5213 123.076 54.7ZM133.348 52.3L127.06 63.5H124.884L131.156 52.3H133.348ZM125.604 53.452C125.018 53.452 124.724 53.868 124.724 54.7C124.724 55.5427 125.018 55.964 125.604 55.964C125.892 55.964 126.116 55.8627 126.276 55.66C126.436 55.4467 126.516 55.1267 126.516 54.7C126.516 53.868 126.212 53.452 125.604 53.452ZM130.1 61.084C130.1 60.2627 130.335 59.628 130.804 59.18C131.284 58.7213 131.898 58.492 132.644 58.492C133.391 58.492 133.994 58.7213 134.452 59.18C134.922 59.628 135.156 60.2627 135.156 61.084C135.156 61.9053 134.922 62.5453 134.452 63.004C133.994 63.4627 133.391 63.692 132.644 63.692C131.887 63.692 131.274 63.4627 130.804 63.004C130.335 62.5453 130.1 61.9053 130.1 61.084ZM132.628 59.836C132.02 59.836 131.716 60.252 131.716 61.084C131.716 61.9267 132.02 62.348 132.628 62.348C133.226 62.348 133.524 61.9267 133.524 61.084C133.524 60.252 133.226 59.836 132.628 59.836Z" fill="#717171" fill-opacity="0.5"/>
</g>
<defs>
<filter id="filter0_d_51_4894" x="0" y="0" width="212" height="103" filterUnits="userSpaceOnUse" color-interpolation-filters="sRGB">
<feFlood flood-opacity="0" result="BackgroundImageFix"/>
<feColorMatrix in="SourceAlpha" type="matrix" values="0 0 0 0 0 0 0 0 0 0 0 0 0 0 0 0 0 0 127 0" result="hardAlpha"/>
<feOffset dy="8"/>
<feGaussianBlur stdDeviation="8"/>
<feComposite in2="hardAlpha" operator="out"/>
<feColorMatrix type="matrix" values="0 0 0 0 0.14902 0 0 0 0 0.196078 0 0 0 0 0.219608 0 0 0 0.05 0"/>
<feBlend mode="normal" in2="BackgroundImageFix" result="effect1_dropShadow_51_4894"/>
<feBlend mode="normal" in="SourceGraphic" in2="effect1_dropShadow_51_4894" result="shape"/>
</filter>
</defs>
</svg>
